<svg width="24" height="25" viewBox="0 0 24 25" fill="none" xmlns="http://www.w3.org/2000/svg">
<path d="M2 19.5151C2 21.2151 3.3 22.5151 5 22.5151H19C20.7 22.5151 22 21.2151 22 19.5151V11.5151H2V19.5151ZM19 4.51514H17V3.51514C17 2.91514 16.6 2.51514 16 2.51514C15.4 2.51514 15 2.91514 15 3.51514V4.51514H9V3.51514C9 2.91514 8.6 2.51514 8 2.51514C7.4 2.51514 7 2.91514 7 3.51514V4.51514H5C3.3 4.51514 2 5.81514 2 7.51514V9.51514H22V7.51514C22 5.81514 20.7 4.51514 19 4.51514Z" fill="#0D688C"/>
</svg>
