<?xml version="1.0" encoding="UTF-8"?>
<svg id="Layer_2" xmlns="http://www.w3.org/2000/svg" viewBox="0 0 734.51 140.38">
  <defs>
    <style>
      .cls-1 {
        fill: #fff;
      }

      .cls-2 {
        fill: #0073ff;
      }
    </style>
  </defs>
  <g id="Layer_1-2" data-name="Layer_1">
    <g>
      <circle class="cls-2" cx="70.19" cy="70.19" r="70.19"/>
      <path class="cls-1" d="M19.35,37.91h21.87l7.88,42.82,11.53-42.82h21.8l11.56,42.77,7.88-42.77h21.76l-16.43,76.49h-22.58l-13.07-48.16-13.02,48.16h-22.58L19.35,37.91Z"/>
      <g>
        <path d="M161.99,37.83h22.08l7.95,42.12,11.63-42.12h22l11.66,42.06,7.96-42.06h21.97l-16.58,75.23h-22.8l-13.2-47.37-13.14,47.37h-22.8l-16.74-75.23Z"/>
        <path d="M290.7,76.22l-19.96-2.1c.75-3.49,1.84-6.24,3.26-8.24,1.42-2,3.46-3.74,6.13-5.21,1.92-1.06,4.55-1.88,7.9-2.46,3.35-.58,6.98-.87,10.88-.87,6.26,0,11.29.35,15.09,1.05s6.96,2.16,9.49,4.39c1.78,1.54,3.18,3.72,4.21,6.54,1.03,2.82,1.54,5.52,1.54,8.08v24.07c0,2.57.16,4.58.49,6.03.32,1.45,1.03,3.31,2.13,5.57h-19.6c-.79-1.4-1.3-2.47-1.54-3.21-.24-.74-.48-1.89-.72-3.46-2.74,2.64-5.46,4.52-8.16,5.65-3.69,1.51-7.99,2.26-12.88,2.26-6.5,0-11.44-1.51-14.81-4.52-3.37-3.01-5.05-6.72-5.05-11.14,0-4.14,1.21-7.54,3.64-10.21,2.43-2.67,6.91-4.65,13.45-5.95,7.83-1.57,12.91-2.68,15.24-3.31,2.33-.63,4.79-1.46,7.39-2.49,0-2.57-.53-4.36-1.59-5.39-1.06-1.03-2.93-1.54-5.59-1.54-3.42,0-5.99.55-7.7,1.64-1.33.86-2.41,2.46-3.23,4.82ZM308.82,87.2c-2.87,1.03-5.87,1.93-8.98,2.72-4.24,1.13-6.93,2.24-8.06,3.34-1.16,1.13-1.74,2.41-1.74,3.85,0,1.64.57,2.99,1.72,4.03,1.15,1.04,2.83,1.57,5.05,1.57s4.49-.56,6.49-1.69c2-1.13,3.42-2.51,4.26-4.13.84-1.62,1.26-3.74,1.26-6.34v-3.34Z"/>
        <path d="M365.16,37.83v20.73h11.5v15.29h-11.5v19.31c0,2.32.22,3.86.67,4.61.68,1.16,1.88,1.74,3.59,1.74,1.54,0,3.69-.44,6.47-1.33l1.54,14.42c-5.17,1.13-9.99,1.69-14.47,1.69-5.2,0-9.03-.67-11.5-2-2.46-1.33-4.29-3.36-5.47-6.07-1.18-2.72-1.77-7.12-1.77-13.2v-19.17h-7.7v-15.29h7.7v-10.01l20.94-10.73Z"/>
        <path d="M427.26,91.72l19.86,2.26c-1.1,4.14-2.89,7.72-5.39,10.75-2.5,3.03-5.69,5.38-9.57,7.06-3.88,1.68-8.82,2.51-14.81,2.51s-10.6-.54-14.45-1.61c-3.85-1.08-7.16-2.82-9.93-5.23-2.77-2.41-4.94-5.24-6.52-8.49-1.57-3.25-2.36-7.55-2.36-12.92s.96-10.27,2.87-14c1.4-2.73,3.32-5.19,5.75-7.36,2.43-2.17,4.93-3.79,7.49-4.85,4.07-1.67,9.29-2.51,15.65-2.51,8.9,0,15.68,1.59,20.35,4.77,4.67,3.18,7.95,7.84,9.83,13.96l-19.65,2.62c-.62-2.33-1.74-4.08-3.36-5.26-1.63-1.18-3.81-1.77-6.54-1.77-3.46,0-6.25,1.24-8.39,3.71-2.14,2.48-3.21,6.22-3.21,11.24,0,4.47,1.06,7.87,3.18,10.19,2.12,2.32,4.82,3.48,8.11,3.48,2.74,0,5.04-.7,6.9-2.1,1.86-1.4,3.26-3.56,4.18-6.47Z"/>
        <path d="M454.92,37.83h20.89v27.71c2.84-2.94,5.66-5.05,8.47-6.31,2.8-1.27,6.12-1.9,9.96-1.9,5.68,0,10.15,1.73,13.42,5.18,3.27,3.46,4.9,8.76,4.9,15.91v34.64h-20.99v-29.97c0-3.42-.63-5.84-1.9-7.26-1.27-1.42-3.05-2.13-5.34-2.13-2.53,0-4.58.96-6.16,2.87-1.57,1.92-2.36,5.35-2.36,10.32v26.17h-20.89V37.83Z"/>
        <path d="M576.5,82.28l20.37,6.16c-1.37,5.71-3.52,10.49-6.47,14.32-2.94,3.83-6.59,6.72-10.96,8.67-4.36,1.95-9.91,2.92-16.65,2.92-8.18,0-14.86-1.19-20.04-3.56-5.18-2.38-9.66-6.56-13.42-12.54-3.76-5.98-5.65-13.64-5.65-22.98,0-12.44,3.31-22.01,9.93-28.69,6.62-6.68,15.99-10.03,28.1-10.03,9.48,0,16.93,1.92,22.35,5.75,5.42,3.83,9.45,9.72,12.09,17.65l-20.53,4.57c-.72-2.29-1.47-3.97-2.26-5.03-1.3-1.78-2.89-3.15-4.77-4.11-1.88-.96-3.99-1.44-6.31-1.44-5.27,0-9.31,2.12-12.11,6.36-2.12,3.14-3.18,8.08-3.18,14.81,0,8.34,1.26,14.05,3.8,17.15,2.53,3.09,6.09,4.64,10.67,4.64s7.81-1.25,10.08-3.75c2.27-2.5,3.93-6.12,4.95-10.88Z"/>
        <path d="M604.21,85.97c0-8.31,2.8-15.16,8.42-20.55,5.61-5.39,13.19-8.08,22.73-8.08,10.91,0,19.16,3.16,24.74,9.49,4.48,5.1,6.72,11.38,6.72,18.83,0,8.38-2.78,15.25-8.34,20.6-5.56,5.35-13.25,8.03-23.07,8.03-8.76,0-15.84-2.22-21.25-6.67-6.64-5.51-9.96-12.73-9.96-21.66ZM625.15,85.92c0,4.86.98,8.45,2.95,10.78,1.97,2.33,4.44,3.49,7.42,3.49s5.48-1.15,7.42-3.44c1.93-2.29,2.9-5.97,2.9-11.03,0-4.72-.97-8.24-2.93-10.55-1.95-2.31-4.36-3.46-7.24-3.46-3.05,0-5.56,1.17-7.54,3.52-1.98,2.34-2.98,5.91-2.98,10.7Z"/>
        <path d="M676.88,58.57h19.45v8.88c2.91-3.63,5.85-6.22,8.83-7.77,2.98-1.56,6.6-2.34,10.88-2.34,5.78,0,10.31,1.72,13.57,5.16,3.27,3.44,4.9,8.75,4.9,15.93v34.64h-20.99v-29.97c0-3.42-.63-5.84-1.9-7.26-1.27-1.42-3.05-2.13-5.34-2.13-2.53,0-4.58.96-6.16,2.87-1.57,1.92-2.36,5.35-2.36,10.32v26.17h-20.89v-54.5Z"/>
      </g>
    </g>
  </g>
</svg>