<svg width="22" height="23" viewBox="0 0 22 23" fill="none" xmlns="http://www.w3.org/2000/svg">
<path fill-rule="evenodd" clip-rule="evenodd" d="M20.3822 13.0564C20.4597 12.5678 20.5 12.0668 20.5 11.5564C20.5 10.5081 20.3302 9.4994 20.0166 8.5564H16.6067C16.7692 10.1176 16.7846 11.6312 16.6985 13.0564H20.3822ZM15.1955 13.0564H6.80446C6.71423 11.6358 6.72974 10.12 6.90263 8.5564H15.0974C15.2703 10.12 15.2858 11.6358 15.1955 13.0564ZM16.4059 7.0564H19.3687C18.4737 5.39538 17.0985 4.03129 15.4291 3.14991C15.8772 4.46041 16.1947 5.76981 16.4059 7.0564ZM13.5456 2.40131C14.1849 3.9553 14.6154 5.52119 14.8839 7.0564H7.11615C7.38457 5.52119 7.81512 3.9553 8.45437 2.40131C9.26454 2.17653 10.1182 2.0564 11 2.0564C11.8818 2.0564 12.7355 2.17653 13.5456 2.40131ZM15.0588 14.5564C14.7535 17.1266 14.1305 19.2876 13.5496 20.7104C12.7382 20.9359 11.8832 21.0564 11 21.0564C10.1168 21.0564 9.26177 20.9359 8.45042 20.7104C7.86952 19.2876 7.24653 17.1266 6.94119 14.5564H15.0588ZM15.4142 19.9708C15.8896 18.515 16.3312 16.6596 16.5686 14.5564H20.0166C19.2373 16.8996 17.5702 18.8374 15.4142 19.9708ZM5.30151 13.0564C5.21543 11.6312 5.23078 10.1176 5.39332 8.5564H1.98341C1.6698 9.4994 1.5 10.5081 1.5 11.5564C1.5 12.0668 1.54025 12.5678 1.61775 13.0564H5.30151ZM5.59409 7.0564C5.80532 5.76981 6.12279 4.46041 6.57086 3.14991C4.90145 4.03129 3.52634 5.39538 2.63131 7.0564H5.59409ZM1.98341 14.5564H5.43145C5.66878 16.6596 6.11045 18.515 6.58585 19.9708C4.42979 18.8374 2.76266 16.8996 1.98341 14.5564ZM11 22.5564C17.0751 22.5564 22 17.6315 22 11.5564C22 5.48126 17.0751 0.556396 11 0.556396C4.92487 0.556396 0 5.48126 0 11.5564C0 17.6315 4.92487 22.5564 11 22.5564Z" fill="#2B77AF"/>
</svg>
