<svg width="16" height="16" viewBox="0 0 16 16" fill="none" xmlns="http://www.w3.org/2000/svg">
<path fill-rule="evenodd" clip-rule="evenodd" d="M3 4.25C3 3.75754 3.097 3.26991 3.28545 2.81494C3.47391 2.35997 3.75013 1.94657 4.09835 1.59835C4.44657 1.25013 4.85997 0.973907 5.31494 0.785452C5.76991 0.596997 6.25754 0.5 6.75 0.5C7.24246 0.5 7.73009 0.596997 8.18506 0.785452C8.64003 0.973907 9.05343 1.25013 9.40165 1.59835C9.74987 1.94657 10.0261 2.35997 10.2145 2.81494C10.403 3.26991 10.5 3.75754 10.5 4.25C10.5 5.24456 10.1049 6.19839 9.40165 6.90165C8.69839 7.60491 7.74456 8 6.75 8C5.75544 8 4.80161 7.60491 4.09835 6.90165C3.39509 6.19839 3 5.24456 3 4.25ZM13 3.575V3H11.75V8H13V5.71875L13.1287 5.88L13.1375 5.89C13.4537 6.28625 13.7525 6.66 13.9738 6.97375C14.0846 7.13125 14.165 7.2575 14.215 7.3525L14.25 7.425V8H15.5V3H14.25V5.28125L14.1213 5.12L14.1125 5.11C13.8239 4.75645 13.5451 4.39507 13.2762 4.02625C13.1883 3.90493 13.1078 3.77846 13.035 3.6475L13 3.575ZM0.5 15.5V14.875C0.5 13.3832 1.09263 11.9524 2.14752 10.8975C3.20242 9.84263 4.63316 9.25 6.125 9.25H7.375C8.86684 9.25 10.2976 9.84263 11.3525 10.8975C12.4074 11.9524 13 13.3832 13 14.875V15.5H0.5Z" fill="#FF8787"/>
</svg>
